<?xml version="1.0" encoding="UTF-8" standalone="no"?>
<!-- Created with Inkscape (http://www.inkscape.org/) -->

<svg
   width="121.99786mm"
   height="120.04369mm"
   viewBox="0 0 121.99786 120.04369"
   version="1.1"
   id="svg5"
   xml:space="preserve"
   xmlns:inkscape="http://www.inkscape.org/namespaces/inkscape"
   xmlns:sodipodi="http://sodipodi.sourceforge.net/DTD/sodipodi-0.dtd"
   xmlns="http://www.w3.org/2000/svg"
   xmlns:svg="http://www.w3.org/2000/svg"><sodipodi:namedview
     id="namedview7"
     pagecolor="#ffffff"
     bordercolor="#666666"
     borderopacity="1.0"
     inkscape:showpageshadow="2"
     inkscape:pageopacity="0.0"
     inkscape:pagecheckerboard="0"
     inkscape:deskcolor="#d1d1d1"
     inkscape:document-units="mm"
     showgrid="false"
     showguides="true"><sodipodi:guide
       position="61.155704,37.386723"
       orientation="1,0"
       id="guide415"
       inkscape:locked="false" /></sodipodi:namedview><defs
     id="defs2" /><g
     inkscape:label="Layer 1"
     inkscape:groupmode="layer"
     id="layer1"
     transform="translate(-28.699622,-48.338511)"><g
       id="g419"><path
         d="m 36.213257,168.23685 c -2.003505,-0.48093 -3.515784,-1.40576 -4.92178,-3.0099 -0.977214,-1.11496 -1.621634,-2.30521 -2.058194,-3.80153 -0.41505,-1.42256 -0.41505,-3.86715 0,-5.28982 0.52472,-1.79845 1.06339,-2.69716 2.673351,-4.45982 2.98106,-3.26416 51.8795,-54.139046 52.480104,-54.602066 1.619832,-1.24693 3.317346,-1.82017 5.408083,-1.82621 1.725269,-0.005 2.581117,0.21025 4.201055,1.05646 0.946044,0.49421 1.383532,0.83526 2.417233,1.88434 3.757081,3.812906 51.606981,53.731586 52.162601,54.419506 0.36389,0.4491 0.90631,1.35212 1.20539,2.00673 2.49452,5.45994 -0.31064,11.8737 -5.90735,13.50698 -1.10508,0.3225 -3.48827,0.32665 -4.59978,0.008 -1.06109,-0.30417 -2.3944,-0.98648 -3.17976,-1.62719 -0.34708,-0.28322 -10.85904,-10.51246 -23.35954,-22.73198 -12.50077,-12.21925 -22.801789,-22.23559 -22.891218,-22.25861 -0.08952,-0.0229 -10.439929,10.00443 -23.000758,22.28322 -12.56083,12.27852 -23.09495,22.52504 -23.409011,22.76977 -0.748585,0.5837 -2.124736,1.27868 -3.05726,1.54401 -1.063969,0.30271 -3.166799,0.36711 -4.164807,0.12757 z"
         stroke-width="0.128222"
         id="path9" /><path
         d="m 35.990885,48.483854 c -2.003505,0.48093 -3.515784,1.40576 -4.92178,3.0099 -0.977214,1.11495 -1.621634,2.3052 -2.058194,3.80153 -0.41505,1.42256 -0.41505,3.86715 0,5.28982 0.52472,1.79845 1.06339,2.69716 2.673351,4.45982 2.98106,3.26416 51.879499,54.139046 52.480099,54.602066 1.61984,1.24693 3.31735,1.82017 5.40809,1.82621 1.72527,0.005 2.58111,-0.21025 4.20105,-1.05646 0.94605,-0.49421 1.38353,-0.83526 2.41724,-1.88434 3.757072,-3.8129 51.606969,-53.731586 52.162589,-54.419506 0.36389,-0.4491 0.90631,-1.35212 1.20539,-2.00673 2.49452,-5.45994 -0.31064,-11.8737 -5.90735,-13.50698 -1.10508,-0.3225 -3.48827,-0.32665 -4.59978,-0.008 -1.06109,0.30417 -2.3944,0.98648 -3.17976,1.62719 -0.34708,0.28322 -10.85904,10.51246 -23.35954,22.73198 -12.50077,12.219248 -22.801779,22.235587 -22.891209,22.258607 -0.0895,0.0229 -10.43993,-10.004429 -23.00076,-22.283217 -12.56083,-12.27852 -23.094949,-22.52504 -23.40901,-22.76977 -0.748585,-0.5837 -2.124736,-1.27868 -3.05726,-1.54401 -1.063969,-0.30271 -3.166799,-0.36711 -4.164807,-0.12757 z"
         stroke-width="0.128222"
         id="path9-7"
         style="fill:#000000" /></g></g></svg>
