<?xml version="1.0" encoding="UTF-8"?>
<svg width="122mm" height="120.04mm" version="1.1" viewBox="0 0 122 120.04" xml:space="preserve" xmlns="http://www.w3.org/2000/svg"><g transform="translate(-28.7 -48.339)"><g stroke-width=".12822"><path d="m36.213 168.24c-2.0035-0.48093-3.5158-1.4058-4.9218-3.0099-0.97721-1.115-1.6216-2.3052-2.0582-3.8015-0.41505-1.4226-0.41505-3.8672 0-5.2898 0.52472-1.7984 1.0634-2.6972 2.6734-4.4598 2.9811-3.2642 51.88-54.139 52.48-54.602 1.6198-1.2469 3.3173-1.8202 5.4081-1.8262 1.7253-5e-3 2.5811 0.21025 4.2011 1.0565 0.94604 0.49421 1.3835 0.83526 2.4172 1.8843 3.7571 3.8129 51.607 53.732 52.163 54.42 0.36389 0.4491 0.90631 1.3521 1.2054 2.0067 2.4945 5.4599-0.31064 11.874-5.9074 13.507-1.1051 0.3225-3.4883 0.32665-4.5998 8e-3 -1.0611-0.30417-2.3944-0.98648-3.1798-1.6272-0.34708-0.28322-10.859-10.512-23.36-22.732-12.501-12.219-22.802-22.236-22.891-22.259-0.08952-0.0229-10.44 10.004-23.001 22.283-12.561 12.279-23.095 22.525-23.409 22.77-0.74858 0.5837-2.1247 1.2787-3.0573 1.544-1.064 0.30271-3.1668 0.36711-4.1648 0.12757z"/><path d="m35.991 48.484c-2.0035 0.48093-3.5158 1.4058-4.9218 3.0099-0.97721 1.115-1.6216 2.3052-2.0582 3.8015-0.41505 1.4226-0.41505 3.8672 0 5.2898 0.52472 1.7984 1.0634 2.6972 2.6734 4.4598 2.9811 3.2642 51.879 54.139 52.48 54.602 1.6198 1.2469 3.3174 1.8202 5.4081 1.8262 1.7253 5e-3 2.5811-0.21025 4.201-1.0565 0.94605-0.49421 1.3835-0.83526 2.4172-1.8843 3.7571-3.8129 51.607-53.732 52.163-54.42 0.36389-0.4491 0.90631-1.3521 1.2054-2.0067 2.4945-5.4599-0.31064-11.874-5.9074-13.507-1.1051-0.3225-3.4883-0.32665-4.5998-8e-3 -1.0611 0.30417-2.3944 0.98648-3.1798 1.6272-0.34708 0.28322-10.859 10.512-23.36 22.732-12.501 12.219-22.802 22.236-22.891 22.259-0.0895 0.0229-10.44-10.004-23.001-22.283-12.561-12.279-23.095-22.525-23.409-22.77-0.74858-0.5837-2.1247-1.2787-3.0573-1.544-1.064-0.30271-3.1668-0.36711-4.1648-0.12757z"/></g></g></svg>
