<?xml version="1.0" encoding="UTF-8"?>
<svg version="1.1" viewBox="0 0 467.1 342.9" xml:space="preserve" xmlns="http://www.w3.org/2000/svg"><g transform="translate(-.8309 -78.793)"><path d="m53.391 421.12c-8.7503-1.0423-13.332-2.4688-21.481-6.6878-13.456-6.9666-23.829-19.467-28.953-34.892l-2.1258-6.3987v-245.89l2.1258-6.3987c5.1388-15.468 15.478-27.904 29.067-34.964 14.835-7.7073-2.954-7.0845 202.36-7.0845 205.31 0 187.52-0.62279 202.36 7.0845 13.59 7.0601 23.928 19.496 29.067 34.964l2.1258 6.3987v245.89l-2.1258 6.3987c-5.1373 15.463-15.478 27.904-29.058 34.959-14.74 7.6576 3.1502 7.0098-198.25 7.1783-98.54 0.0823-181.84-0.16852-185.1-0.55783zm361.42-38.76c6.0927-1.8336 10.466-5.516 12.991-10.939l2.178-4.6775 9e-3 -111.75c6e-3 -65.707-0.33041-111.75-0.81464-111.75-0.45296 0-42.084 31.873-92.514 70.829-50.43 38.956-93.098 71.497-94.818 72.313-2.1885 1.0385-4.8289 1.3754-8.7984 1.1226-4.8279-0.30741-6.408-0.89004-10.622-3.917-2.723-1.9558-44.527-34.135-92.899-71.51-48.371-37.375-88.58-68.197-89.353-68.493-1.2594-0.48327-1.4042 11.06-1.3962 111.31l0.0095 111.85 2.178 4.6775c2.4637 5.2911 6.8716 9.0909 12.632 10.89 6.008 1.8761 354.99 1.9238 361.22 0.0492zm-97.912-201.24c44.628-34.471 80.903-63.059 80.612-63.53-0.71614-1.1587-325.54-1.1587-326.26 0-0.63694 1.0306 161.16 126.2 163.13 126.2 0.75725 0 37.89-28.203 82.518-62.674z" stroke-width=".9141"/></g></svg>
