<?xml version="1.0" encoding="UTF-8"?>
<svg version="1.1" viewBox="0 0 467.87 456.49" xmlns="http://www.w3.org/2000/svg">
<g transform="translate(-3.0655 -7.104)">
<path d="m163.37 463.12c-5.5043-1.3811-24.226-9.3059-34.638-14.662-21.165-10.888-38.687-23.705-55.9-40.89-35.26-35.203-58.449-79.08-66.202-125.26-8.5946-51.196-1.5806-101.01 20.402-144.91 33.562-67.023 94.545-113.16 167.35-126.6 34.568-6.3822 74.105-4.4215 108.09 5.3606 82.975 23.883 147.66 94.35 164 178.66 9.93 51.231 3.2021 103.39-19.189 148.75-18.36 37.198-46.538 69.407-81.082 92.678-18.6 12.53-50.281 26.862-59.621 26.971-4.4894 0.0526-5.1527-0.2182-7.9126-3.2298l-3.0125-3.2872-0.42194-41.023c-0.35471-34.486-0.66678-41.97-1.9585-46.965-1.8516-7.1607-5.6171-14.922-9.7106-20.016-1.6597-2.0653-2.8461-3.9228-2.6364-4.1278 0.20972-0.20495 5.7054-1.2697 12.213-2.3662 25.618-4.3165 44.573-12.272 60.473-25.38 14.815-12.213 25.535-32.794 30.188-57.956 1.9784-10.699 2.712-35.245 1.3347-44.664-2.2246-15.214-8.0669-29.182-17.319-41.405l-5.3848-7.1143 1.855-5.6857c1.3323-4.0837 1.9753-9.0524 2.282-17.635 0.4615-12.912-0.64056-20.649-4.5746-32.117-1.805-5.2615-2.4653-6.1975-4.8152-6.8259-8.2272-2.2003-31.655 6.1636-52.466 18.73-4.727 2.8545-9.3899 5.19-10.362 5.19-0.97208 0-4.9217-0.79934-8.7769-1.7763-14.893-3.774-27.096-5.0391-48.609-5.0391-21.513 0-33.717 1.2651-48.609 5.0391-3.8552 0.97696-7.8624 1.7763-8.9049 1.7763-1.0425 0-4.756-1.8336-8.2522-4.0746-16.77-10.749-39.907-19.697-50.934-19.697h-5.879l-1.6455 3.8857c-6.5048 15.36-7.7416 37.345-2.9645 52.694l1.7259 5.5453-4.921 6.4955c-9.7667 12.892-15.589 26.616-17.794 41.942-1.57 10.914-0.57963 35.369 1.9095 47.153 5.0086 23.711 14.33 41.961 27.535 53.908 15.562 14.08 40.076 24.41 65.248 27.493 3.0171 0.36961 6.4321 1.026 7.5887 1.4586l2.103 0.78665-3.2348 4.2365c-4.1879 5.4847-7.4951 12.54-9.0971 19.407-0.70346 3.0155-1.5568 5.932-1.8962 6.4813-2.1017 3.4007-18.567 6.7936-30.532 6.2915-7.751-0.3253-9.5657-0.74084-15.005-3.4359-7.8634-3.8962-14.402-10.204-21.431-20.674-6.888-10.26-13.57-16.457-22.505-20.872-10.675-5.2748-23.226-5.4844-24.204-0.40434-0.39569 2.0546 4.6138 7.5266 10.717 11.706 9.3319 6.3905 16.505 16.052 22.967 30.937 2.1137 4.8683 5.4126 10.961 7.3308 13.539 3.9214 5.2702 12.212 11.214 19.388 13.898 9.6389 3.6064 30.118 5.1893 45.553 3.5211l6.943-0.75035 0.64166 21.069c0.69913 22.956 0.20262 27.154-3.6319 30.708-2.9553 2.7389-7.2952 3.6719-11.81 2.5391z" stroke-width=".91429"/>
</g>
</svg>
