<?xml version="1.0" encoding="UTF-8"?>
<svg width="43.328mm" height="10.372mm" version="1.1" viewBox="0 0 43.328 10.372" xmlns="http://www.w3.org/2000/svg">
<g transform="translate(-56.784 -64.065)">
<g transform="scale(.26458)" style="shape-inside:url(#rect63);white-space:pre" aria-label="&lt;/ MK &gt;">
<path d="m214.62 257.54v4.72l21.88 8.88v-5.68l-14.32-5.52 14.32-5.6v-5.68z"/>
<path d="m262.22 242.14h-6.12l-16.48 39.2h6.12z"/>
<path d="m303.74 276.54h7.52l-2.96-33h-8l-7.32 19.04-7.32-19.04h-8l-2.96 33h7.52l1.56-19.56h0.2l6.76 19.36h4.48l6.76-19.36h0.2z"/>
<path d="m333.74 276.54-15.36-17.36 13.28-15.64h-9.12l-12.803 15.312-1.4834-15.312-8.1308 0.0873 3.5777 32.913h7.52l-1.0471-12.691 13.207 12.691z"/>
<path d="m356.5 265.46v5.68l21.88-8.88v-4.72l-21.88-8.88v5.68l14.32 5.6z"/>
</g>
</g>
</svg>
