<?xml version="1.0" encoding="UTF-8"?>
<svg version="1.1" viewBox="0 0 467.1 342.9" xml:space="preserve" xmlns="http://www.w3.org/2000/svg"><path d="m32.273 298.86c-7.5723-1.8177-13.288-5.3131-18.602-11.376-3.6934-4.214-6.129-8.7126-7.779-14.368-1.5687-5.3766-1.5687-14.616 0-19.993 1.9832-6.7973 4.0191-10.194 10.104-16.856 11.267-12.337 196.08-204.62 198.35-206.37 6.1222-4.7128 12.538-6.8794 20.44-6.9022 6.5207-0.0189 9.7554 0.79461 15.878 3.9929 3.5756 1.8679 5.2291 3.1569 9.136 7.1219 14.2 14.411 195.05 203.08 197.15 205.68 1.3753 1.6974 3.4254 5.1104 4.5558 7.5845 9.4281 20.636-1.1741 44.877-22.327 51.05-4.1767 1.2189-13.184 1.2346-17.385 0.0301-4.0104-1.1496-9.0497-3.7284-12.018-6.15-1.3118-1.0703-41.042-39.732-88.288-85.916-47.247-46.183-86.18-84.04-86.518-84.127-0.33835-0.0866-39.458 37.812-86.932 84.22-47.474 46.407-87.288 85.134-88.475 86.059-2.8293 2.2061-8.0305 4.8328-11.555 5.8356-4.0213 1.1441-11.969 1.3875-15.741 0.48218z" stroke-width=".48462"/></svg>
